<svg width="648" height="320" viewBox="0 0 648 320" fill="none" xmlns="http://www.w3.org/2000/svg">
<path d="M556.037 188.376C555.464 189.224 554.866 190.057 554.249 190.885C530.588 222.594 475.546 242.287 382.721 231.865C330.015 225.665 307.569 248.405 285.834 271.696C285.463 272.098 285.091 272.5 284.714 272.902C261.953 297.327 239.419 321.82 183.074 313.678C123.341 306.413 86.477 269.105 80.7726 229.273C80.7031 228.789 80.6404 228.3 80.5835 227.816C77.3789 201.991 87.2828 175.251 112.55 155.064C127.812 142.873 149.496 136.398 171.879 136.601C178.618 136.698 185.355 136.314 192.002 135.453C193.469 135.255 194.892 135.037 196.277 134.79C224.792 129.777 237.933 114.874 245.992 96.6875C246.181 96.2565 246.37 95.8254 246.552 95.3895C265.057 52.0176 295.318 -2.98721 395.92 5.96809C485.943 11.0729 513.191 43.5999 545.598 87.9018C545.919 88.3473 546.24 88.7929 546.555 89.2385C555.462 101.531 561.818 114.818 565.393 128.62C565.595 129.394 565.777 130.169 565.947 130.944C570.531 151.519 567.528 171.517 556.037 188.376Z" fill="#D3EBD0"/>
<path d="M532.605 97.0058C526.504 104.231 519.63 110.771 512.104 116.509C482.789 138.911 445.659 151.06 409.029 153.608C390.204 154.927 371.287 153.647 352.814 149.804C334.02 145.88 316.094 138.97 298.733 130.899C281.848 123.046 265.463 114.192 248.691 106.121C248.87 105.593 249.048 105.066 249.221 104.532C267.509 113.303 285.423 122.969 303.925 131.325C321.357 139.201 339.402 145.626 358.273 149.063C377.102 152.469 396.318 153.219 415.357 151.291C451.886 147.629 489.046 134.2 517.13 110.174C522.403 105.664 527.278 100.711 531.701 95.3701C532.004 95.9153 532.308 96.4606 532.605 97.0058Z" fill="white"/>
<path d="M317.939 38.5308C317.909 38.5308 317.88 38.5317 317.85 38.5336C286.46 40.4941 261.871 66.6136 261.871 97.9974C261.871 129.382 286.46 155.501 317.85 157.461C318.038 157.474 318.226 157.447 318.403 157.384C318.58 157.321 318.741 157.222 318.878 157.093C319.014 156.966 319.123 156.813 319.197 156.643C319.271 156.473 319.309 156.289 319.308 156.103V39.8917C319.307 39.5304 319.162 39.1842 318.906 38.9291C318.649 38.6739 318.302 38.5307 317.939 38.5308Z" fill="#48AFA3"/>
<path d="M365.933 137.707C365.467 137.707 365.021 137.523 364.692 137.195L324.105 96.7346C323.941 96.5728 323.812 96.3803 323.724 96.1683C323.636 95.9562 323.591 95.7289 323.591 95.4994V39.8917C323.59 39.653 323.639 39.4168 323.734 39.1978C323.829 38.9789 323.969 38.7819 324.144 38.6192C324.319 38.4546 324.527 38.3277 324.754 38.2463C324.981 38.1649 325.222 38.1308 325.463 38.1461C357.057 40.1193 381.807 66.4092 381.807 97.9974C381.807 112.346 376.647 126.219 367.263 137.099C367.105 137.281 366.911 137.429 366.694 137.533C366.476 137.638 366.239 137.697 365.998 137.706C365.976 137.707 365.954 137.707 365.933 137.707Z" fill="#48AFA3"/>
<path d="M325.351 157.853C324.903 157.853 324.472 157.683 324.145 157.377C323.969 157.215 323.829 157.017 323.734 156.798C323.639 156.579 323.59 156.342 323.591 156.104V105.931C323.591 105.585 323.694 105.248 323.887 104.96C324.079 104.673 324.353 104.449 324.673 104.317C324.993 104.185 325.345 104.15 325.685 104.218C326.025 104.285 326.337 104.451 326.582 104.696L362 140.002C362.168 140.17 362.3 140.37 362.388 140.591C362.476 140.811 362.519 141.047 362.513 141.284C362.506 141.522 362.452 141.755 362.352 141.971C362.253 142.186 362.111 142.38 361.934 142.539C351.85 151.588 338.999 156.983 325.459 157.85C325.423 157.852 325.387 157.853 325.351 157.853Z" fill="#34B350"/>
<path d="M353.37 151.386C348.221 160.474 340.951 168.49 332.626 174.844C314.126 188.963 290.695 196.621 267.578 198.227C255.699 199.058 243.76 198.251 232.103 195.829C220.242 193.356 208.93 189 197.974 183.913C186.82 178.732 176.006 172.856 164.9 167.578C153.806 162.304 142.403 157.807 130.457 154.863C131.331 154.71 132.18 154.542 133.005 154.352C133.786 154.553 134.564 154.762 135.34 154.979C158.7 161.479 179.317 174.287 201.251 184.182C212.252 189.146 223.639 193.195 235.548 195.362C247.43 197.508 259.557 197.981 271.572 196.766C294.624 194.458 318.075 185.994 335.798 170.85C342.812 164.883 348.658 157.676 353.04 149.593C353.16 150.19 353.269 150.788 353.37 151.386Z" fill="white"/>
<path d="M163.162 247.163C188.559 254.24 211.015 268.088 234.821 278.95C234.577 279.293 234.332 279.636 234.084 279.978C233.479 279.702 232.879 279.425 232.278 279.144C219.969 273.418 208.037 266.923 195.782 261.089C183.278 255.136 170.423 250.078 156.933 246.829C138.287 242.352 119.026 240.986 99.9321 242.787C99.8863 242.374 99.8451 241.957 99.8077 241.544C121.093 239.541 142.566 241.446 163.162 247.163Z" fill="white"/>
<path d="M265.238 286.552H84.6237C84.498 286.552 84.3774 286.525 84.2885 286.479C84.1996 286.432 84.1497 286.369 84.1497 286.303C84.1497 286.238 84.1996 286.174 84.2885 286.128C84.3774 286.081 84.498 286.055 84.6237 286.055H265.238C265.363 286.055 265.484 286.081 265.573 286.128C265.662 286.174 265.712 286.238 265.712 286.303C265.712 286.369 265.662 286.432 265.573 286.479C265.484 286.525 265.363 286.552 265.238 286.552Z" fill="#CACACA"/>
<path d="M157.684 223.248C164.115 223.248 169.328 218.051 169.328 211.641C169.328 205.231 164.115 200.034 157.684 200.034C151.254 200.034 146.041 205.231 146.041 211.641C146.041 218.051 151.254 223.248 157.684 223.248Z" fill="#A0616A"/>
<path d="M201.25 293.541L201.521 299.329L179.258 303.128L178.857 294.587L201.25 293.541Z" fill="#A0616A"/>
<path d="M206.808 291.802L207.426 304.959L207.189 304.97C205.36 305.09 203.538 304.65 201.966 303.71C200.545 302.807 199.727 301.557 199.662 300.189L199.285 292.153L206.808 291.802Z" fill="#2F2E41"/>
<path d="M200.627 303.064L206.439 303.063L209.203 280.716L200.626 280.717L200.627 303.064Z" fill="#A0616A"/>
<path d="M199.144 301.238L210.59 301.238C211.548 301.238 212.497 301.426 213.382 301.791C214.267 302.157 215.071 302.692 215.748 303.367C216.425 304.043 216.963 304.844 217.329 305.726C217.696 306.609 217.884 307.554 217.884 308.509V308.745L199.145 308.746L199.144 301.238Z" fill="#2F2E41"/>
<path d="M145.759 297.651C146.395 297.266 146.94 296.747 147.354 296.13C147.767 295.513 148.04 294.813 148.153 294.079C148.266 293.346 148.217 292.596 148.008 291.884C147.799 291.172 147.436 290.514 146.944 289.956L151.583 243.949L140.535 244.719L139.449 289.7C138.565 290.586 138.037 291.764 137.965 293.011C137.894 294.259 138.284 295.489 139.062 296.469C139.84 297.449 140.951 298.111 142.185 298.328C143.419 298.546 144.691 298.305 145.759 297.651Z" fill="#A0616A"/>
<path d="M151.529 251.924L140.081 250.533C139.755 250.494 139.442 250.385 139.162 250.214C138.883 250.042 138.643 249.813 138.461 249.541C138.278 249.27 138.156 248.962 138.103 248.639C138.051 248.316 138.068 247.986 138.155 247.67L141.204 236.619C141.416 234.959 142.281 233.45 143.607 232.424C144.934 231.398 146.614 230.939 148.28 231.146C149.946 231.353 151.462 232.211 152.494 233.53C153.527 234.85 153.993 236.524 153.789 238.185L154.088 249.606C154.096 249.933 154.034 250.258 153.905 250.559C153.776 250.86 153.584 251.129 153.341 251.349C153.098 251.569 152.81 251.734 152.498 251.834C152.185 251.933 151.855 251.964 151.529 251.924Z" fill="#34B350"/>
<path d="M149.928 304.168C148.54 304.073 147.203 303.615 146.05 302.84C144.897 302.065 143.97 301.001 143.362 299.754C142.754 298.507 142.488 297.122 142.589 295.74C142.69 294.357 143.155 293.026 143.938 291.88L151.416 284.141L178.674 259.804L193.246 247.749C194.097 247.046 195.112 246.569 196.198 246.364C197.283 246.159 198.403 246.232 199.453 246.576C200.503 246.92 201.447 247.525 202.198 248.332C202.95 249.14 203.483 250.125 203.748 251.194L211.361 281.897C211.489 282.407 211.422 282.947 211.173 283.411C210.924 283.876 210.51 284.231 210.013 284.408L201.713 287.387C201.435 287.486 201.139 287.528 200.845 287.507C200.55 287.487 200.263 287.406 200.001 287.27C199.739 287.133 199.509 286.944 199.324 286.714C199.14 286.484 199.005 286.218 198.929 285.934L195.772 274.131L178.205 290.873L183.686 292.884C184.188 293.071 184.602 293.439 184.846 293.915C185.09 294.391 185.145 294.942 185.002 295.457L183.231 301.712C183.108 302.149 182.849 302.535 182.491 302.813C182.132 303.092 181.694 303.248 181.24 303.26L149.928 304.168Z" fill="#2F2E41"/>
<path d="M149.183 286.717L148.462 260.464L143.914 248.949C142.985 246.6 142.583 244.077 142.735 241.557C142.887 239.036 143.59 236.579 144.794 234.358C145.999 232.137 147.675 230.204 149.707 228.697C151.739 227.189 154.077 226.142 156.557 225.63C156.932 225.552 157.305 225.477 157.677 225.403C160.056 224.933 162.508 224.963 164.875 225.494C167.241 226.025 169.47 227.043 171.418 228.484C173.366 229.925 174.989 231.757 176.184 233.861C177.379 235.965 178.119 238.295 178.357 240.702L180.494 260.466L180.485 260.503C177.077 275.615 167.216 283.932 149.449 286.676L149.183 286.717Z" fill="#34B350"/>
<path d="M159.94 268.482C160.199 268.442 160.461 268.422 160.723 268.424L173.883 249.002L171.39 243.88L178.654 239.12L183.95 247.761C184.378 248.46 184.567 249.277 184.489 250.092C184.411 250.906 184.07 251.673 183.518 252.278L165.508 271.991C165.79 272.958 165.771 273.988 165.453 274.944C165.134 275.9 164.531 276.736 163.724 277.342C162.916 277.948 161.943 278.295 160.933 278.336C159.924 278.377 158.925 278.11 158.071 277.572C157.217 277.034 156.548 276.249 156.152 275.322C155.756 274.395 155.653 273.37 155.855 272.383C156.058 271.397 156.558 270.495 157.287 269.798C158.017 269.101 158.942 268.642 159.94 268.482Z" fill="#A0616A"/>
<path d="M172.731 248.641C172.436 248.559 172.162 248.414 171.927 248.217C171.693 248.019 171.505 247.774 171.375 247.497L166.823 237.836C165.956 236.534 165.641 234.942 165.949 233.409C166.257 231.876 167.162 230.528 168.466 229.659C169.769 228.79 171.366 228.472 172.904 228.774C174.443 229.077 175.798 229.975 176.674 231.272L183.864 239.226C184.07 239.453 184.223 239.722 184.315 240.014C184.407 240.305 184.434 240.613 184.396 240.916C184.358 241.219 184.254 241.511 184.093 241.771C183.931 242.03 183.715 242.252 183.46 242.421L174.486 248.364C174.23 248.534 173.941 248.646 173.639 248.694C173.336 248.741 173.026 248.723 172.731 248.641Z" fill="#34B350"/>
<path d="M312.114 220.644H273.682C273.128 220.644 272.597 220.424 272.205 220.034C271.813 219.643 271.593 219.114 271.593 218.562C271.593 218.009 271.813 217.48 272.205 217.089C272.597 216.699 273.128 216.479 273.682 216.479H312.114C312.667 216.479 313.199 216.699 313.59 217.089C313.982 217.48 314.202 218.009 314.202 218.562C314.202 219.114 313.982 219.643 313.59 220.034C313.199 220.424 312.667 220.644 312.114 220.644Z" fill="#48AFA3"/>
<path d="M262.194 222.726C261.327 222.726 260.479 222.47 259.758 221.989C259.036 221.509 258.474 220.826 258.142 220.027C257.81 219.228 257.723 218.349 257.893 217.5C258.062 216.652 258.48 215.873 259.093 215.262C259.706 214.65 260.488 214.234 261.339 214.065C262.19 213.896 263.072 213.983 263.873 214.314C264.674 214.645 265.359 215.205 265.841 215.924C266.323 216.643 266.581 217.489 266.581 218.353C266.579 219.513 266.117 220.624 265.295 221.444C264.472 222.264 263.357 222.725 262.194 222.726Z" fill="#3F3D56"/>
<path d="M312.114 233.137H273.682C273.128 233.137 272.597 232.918 272.205 232.527C271.813 232.137 271.593 231.607 271.593 231.055C271.593 230.503 271.813 229.973 272.205 229.583C272.597 229.192 273.128 228.973 273.682 228.973H312.114C312.667 228.973 313.199 229.192 313.59 229.583C313.982 229.973 314.202 230.503 314.202 231.055C314.202 231.607 313.982 232.137 313.59 232.527C313.199 232.918 312.667 233.137 312.114 233.137Z" fill="#48AFA3"/>
<path d="M262.194 235.22C261.327 235.22 260.479 234.963 259.758 234.483C259.036 234.002 258.474 233.319 258.142 232.52C257.81 231.721 257.723 230.842 257.893 229.994C258.062 229.146 258.479 228.367 259.093 227.755C259.706 227.144 260.488 226.727 261.339 226.559C262.19 226.39 263.071 226.476 263.873 226.807C264.674 227.138 265.359 227.699 265.841 228.418C266.323 229.137 266.581 229.982 266.581 230.847C266.579 232.006 266.117 233.118 265.294 233.937C264.472 234.757 263.357 235.218 262.194 235.22Z" fill="#3F3D56"/>
<path d="M312.114 245.63H273.682C273.128 245.63 272.597 245.411 272.205 245.02C271.813 244.63 271.593 244.1 271.593 243.548C271.593 242.996 271.813 242.466 272.205 242.076C272.597 241.685 273.128 241.466 273.682 241.466H312.114C312.667 241.466 313.199 241.685 313.59 242.076C313.982 242.466 314.202 242.996 314.202 243.548C314.202 244.1 313.982 244.63 313.59 245.02C313.199 245.411 312.667 245.63 312.114 245.63Z" fill="#48AFA3"/>
<path d="M262.194 247.712C261.327 247.712 260.479 247.455 259.758 246.975C259.036 246.494 258.474 245.812 258.142 245.013C257.81 244.214 257.723 243.334 257.893 242.486C258.062 241.638 258.48 240.859 259.093 240.247C259.706 239.636 260.488 239.22 261.339 239.051C262.19 238.882 263.072 238.969 263.873 239.3C264.674 239.631 265.359 240.191 265.841 240.91C266.323 241.629 266.581 242.475 266.581 243.339C266.579 244.499 266.117 245.61 265.295 246.43C264.472 247.249 263.357 247.711 262.194 247.712Z" fill="#3F3D56"/>
<path d="M323.155 230.999H339.029C339.14 230.999 339.246 230.955 339.325 230.877C339.403 230.799 339.447 230.693 339.447 230.583V132.755C339.447 132.644 339.403 132.538 339.325 132.46C339.246 132.382 339.14 132.338 339.029 132.338C338.918 132.338 338.812 132.382 338.734 132.46C338.655 132.538 338.611 132.644 338.611 132.755V230.166H323.155C323.1 230.166 323.046 230.177 322.995 230.198C322.944 230.218 322.898 230.249 322.859 230.288C322.82 230.327 322.789 230.372 322.768 230.423C322.747 230.474 322.736 230.528 322.736 230.583C322.736 230.638 322.747 230.692 322.768 230.742C322.789 230.793 322.82 230.839 322.859 230.878C322.898 230.916 322.944 230.947 322.995 230.968C323.046 230.989 323.1 230.999 323.155 230.999Z" fill="#3F3D56"/>
<path d="M391.175 68.815C390.114 68.9002 389.051 68.6698 388.121 68.1528C387.191 67.6358 386.435 66.8555 385.95 65.9105C385.465 64.9656 385.272 63.8984 385.395 62.844C385.518 61.7895 385.952 60.7952 386.642 59.9867C387.332 59.1782 388.247 58.5919 389.272 58.3019C390.296 58.0118 391.384 58.0311 392.397 58.3573C393.41 58.6835 394.304 59.3019 394.965 60.1343C395.626 60.9668 396.024 61.9759 396.11 63.034C396.224 64.4529 395.769 65.8591 394.843 66.9433C393.918 68.0274 392.598 68.7007 391.175 68.815ZM391.109 67.9919C392.007 67.9198 392.863 67.5838 393.57 67.0264C394.276 66.469 394.801 65.7152 395.078 64.8605C395.355 64.0057 395.371 63.0882 395.125 62.2242C394.879 61.3601 394.381 60.5882 393.695 60.0061C393.009 59.424 392.165 59.0578 391.27 58.9539C390.375 58.85 389.469 59.0129 388.667 59.4222C387.865 59.8315 387.203 60.4687 386.764 61.2532C386.325 62.0377 386.129 62.9343 386.202 63.8297C386.25 64.4242 386.415 65.0034 386.687 65.5343C386.96 66.0652 387.335 66.5374 387.79 66.9239C388.246 67.3104 388.774 67.6036 389.343 67.7869C389.912 67.9702 390.512 68.0398 391.109 67.9919Z" fill="#48AFA3"/>
<path d="M409.715 55.043C411.545 55.043 413.028 53.5642 413.028 51.74C413.028 49.9158 411.545 48.437 409.715 48.437C407.885 48.437 406.401 49.9158 406.401 51.74C406.401 53.5642 407.885 55.043 409.715 55.043Z" fill="#48AFA3"/>
<path d="M426.001 43.0989C426.962 43.0989 427.741 42.3222 427.741 41.3639C427.741 40.4057 426.962 39.6289 426.001 39.6289C425.04 39.6289 424.26 40.4057 424.26 41.3639C424.26 42.3222 425.04 43.0989 426.001 43.0989Z" fill="#48AFA3"/>
<path d="M365.877 174.462C365.289 175.347 364.452 176.039 363.47 176.451C362.489 176.862 361.407 176.974 360.361 176.772C359.316 176.57 358.354 176.064 357.597 175.317C356.84 174.571 356.322 173.617 356.109 172.577C355.896 171.537 355.997 170.457 356.4 169.474C356.802 168.491 357.488 167.65 358.37 167.055C359.253 166.461 360.292 166.141 361.357 166.135C362.422 166.13 363.464 166.439 364.353 167.025C365.543 167.81 366.372 169.035 366.657 170.429C366.943 171.823 366.662 173.273 365.877 174.462ZM357.583 168.999C357.087 169.748 356.824 170.628 356.829 171.526C356.833 172.424 357.105 173.301 357.609 174.045C358.114 174.789 358.828 175.368 359.663 175.707C360.497 176.047 361.413 176.132 362.296 175.952C363.179 175.773 363.989 175.336 364.622 174.697C365.256 174.059 365.686 173.248 365.857 172.366C366.028 171.484 365.934 170.571 365.584 169.743C365.235 168.915 364.648 168.209 363.896 167.713C362.887 167.051 361.656 166.814 360.473 167.055C359.29 167.296 358.25 167.995 357.583 168.999Z" fill="#48AFA3"/>
<path d="M372.327 194.2C374.157 194.2 375.64 192.721 375.64 190.897C375.64 189.073 374.157 187.594 372.327 187.594C370.497 187.594 369.013 189.073 369.013 190.897C369.013 192.721 370.497 194.2 372.327 194.2Z" fill="#48AFA3"/>
<path d="M381.569 209.556C382.53 209.556 383.309 208.78 383.309 207.821C383.309 206.863 382.53 206.086 381.569 206.086C380.608 206.086 379.828 206.863 379.828 207.821C379.828 208.78 380.608 209.556 381.569 209.556Z" fill="#48AFA3"/>
<path d="M232.186 84.316C231.712 83.3653 231.531 82.2959 231.667 81.243C231.803 80.1901 232.249 79.201 232.948 78.4008C233.648 77.6005 234.57 77.0251 235.598 76.7472C236.626 76.4693 237.713 76.5015 238.722 76.8397C239.732 77.1778 240.618 77.8068 241.269 78.647C241.92 79.4872 242.306 80.501 242.379 81.56C242.452 82.6191 242.208 83.6759 241.678 84.5969C241.149 85.5178 240.357 86.2615 239.403 86.734C238.124 87.3658 236.646 87.4661 235.293 87.0128C233.94 86.5595 232.822 85.5896 232.186 84.316ZM241.087 79.9063C240.686 79.1019 240.055 78.4341 239.273 77.9873C238.491 77.5406 237.594 77.335 236.695 77.3964C235.797 77.4579 234.936 77.7837 234.223 78.3327C233.51 78.8817 232.976 79.6292 232.689 80.4806C232.402 81.3321 232.374 82.2493 232.61 83.1162C232.846 83.9831 233.335 84.7608 234.014 85.351C234.693 85.9412 235.533 86.3174 236.426 86.4319C237.32 86.5464 238.228 86.3942 239.035 85.9945C240.116 85.4574 240.939 84.5148 241.324 83.3734C241.709 82.2321 241.623 80.9852 241.087 79.9063Z" fill="#48AFA3"/>
<path d="M214.687 84.9316C216.517 84.9316 218 83.4528 218 81.6287C218 79.8045 216.517 78.3257 214.687 78.3257C212.857 78.3257 211.374 79.8045 211.374 81.6287C211.374 83.4528 212.857 84.9316 214.687 84.9316Z" fill="#48AFA3"/>
<path d="M195.366 82.8416C196.327 82.8416 197.106 82.0648 197.106 81.1066C197.106 80.1484 196.327 79.3716 195.366 79.3716C194.404 79.3716 193.625 80.1484 193.625 81.1066C193.625 82.0648 194.404 82.8416 195.366 82.8416Z" fill="#48AFA3"/>
<path d="M169.989 212.656L169.503 211.423C168.164 208.021 164.963 205.406 161.536 204.916C159.827 204.693 158.089 204.958 156.525 205.681C154.961 206.404 153.635 207.555 152.701 209C151.908 210.37 151.283 211.83 150.837 213.348C150.684 213.8 150.53 214.128 150.235 214.227C149.902 214.346 149.57 214.142 149.021 213.802C148.899 213.727 148.757 213.687 148.613 213.689C148.469 213.69 148.329 213.733 148.208 213.811C148.087 213.889 147.991 214 147.931 214.13C147.871 214.261 147.85 214.406 147.869 214.548L148.445 218.645L147.963 218.218C144.828 215.436 144.184 210.202 146.449 206.882L141.295 207.937L141.528 207.495C143.668 203.377 147.357 200.271 151.788 198.857L146.852 197.773L147.351 197.467C151.771 194.752 157.603 194.828 162.207 197.657C164.52 199.134 166.435 201.152 167.786 203.535C169.138 205.918 169.884 208.595 169.961 211.331L169.989 212.656Z" fill="#2F2E41"/>
<path d="M482.967 286.05H389.407C387.189 286.048 385.063 285.168 383.495 283.605C381.927 282.042 381.045 279.923 381.043 277.712V142.452C381.045 140.241 381.927 138.122 383.495 136.559C385.063 134.996 387.189 134.116 389.407 134.114H482.967C485.185 134.116 487.311 134.996 488.879 136.559C490.447 138.122 491.329 140.241 491.331 142.452V277.712C491.329 279.923 490.447 282.042 488.879 283.605C487.311 285.168 485.185 286.048 482.967 286.05Z" fill="#3F3D56"/>
<path d="M483.132 280.73H389.242C388.559 280.729 387.903 280.458 387.42 279.976C386.937 279.494 386.665 278.841 386.664 278.159V142.003C386.665 141.322 386.937 140.669 387.42 140.187C387.903 139.705 388.559 139.434 389.242 139.433H483.132C483.816 139.434 484.471 139.705 484.954 140.187C485.438 140.669 485.709 141.322 485.71 142.003V278.159C485.71 278.841 485.438 279.494 484.954 279.976C484.471 280.458 483.816 280.729 483.132 280.73Z" fill="white"/>
<path d="M393.823 202.086C394.085 198.538 394.518 194.177 398.039 192.281C399.7 191.387 401.459 191.703 403.13 192.4C404.744 193.074 406.264 193.877 408.003 194.194C410.999 194.709 414.083 194.248 416.796 192.879C419.529 191.524 421.722 189.288 423.017 186.533C423.683 185.131 424.234 183.613 425.217 182.39C425.711 181.748 426.366 181.247 427.116 180.938C427.866 180.628 428.685 180.521 429.49 180.627C433.182 181.082 435.632 184.307 438.575 186.205C439.99 187.118 441.616 187.785 443.33 187.703C445.088 187.619 446.682 186.789 448.029 185.706C450.888 183.408 452.451 179.854 455.451 177.713C456.873 176.723 458.524 176.108 460.249 175.925C461.974 175.742 463.717 175.998 465.317 176.667C468.392 177.99 470.569 180.952 471.144 184.213C471.282 185.016 471.317 185.833 471.25 186.646C471.212 187.125 471.961 187.122 471.998 186.646C472.11 184.956 471.829 183.263 471.177 181.699C470.524 180.136 469.518 178.744 468.237 177.632C465.582 175.349 461.874 174.607 458.501 175.486C456.784 175.94 455.205 176.809 453.906 178.018C452.518 179.294 451.424 180.839 450.253 182.305C449.11 183.734 447.849 185.114 446.245 186.037C445.477 186.504 444.617 186.798 443.723 186.9C442.83 187.001 441.925 186.907 441.071 186.624C439.34 186.042 437.873 184.842 436.488 183.694C435.06 182.51 433.639 181.326 431.923 180.573C430.327 179.874 428.497 179.535 426.836 180.224C425.338 180.845 424.347 182.134 423.612 183.528C422.866 184.943 422.335 186.469 421.465 187.818C420.624 189.11 419.543 190.23 418.282 191.12C415.721 192.945 412.606 193.832 409.464 193.632C407.757 193.511 406.205 192.973 404.66 192.269C402.954 191.491 401.157 190.683 399.237 191.06C397.581 191.384 396.188 192.506 395.221 193.846C394.104 195.392 393.613 197.289 393.357 199.151C393.223 200.125 393.147 201.105 393.074 202.086C393.039 202.565 393.788 202.563 393.823 202.086Z" fill="#E4E4E4"/>
<path d="M362.908 265.788L362.179 269.433C362.124 269.711 362.067 269.995 362.004 270.276C361.395 270.15 360.764 270.185 360.173 270.378C360.642 271.046 361.062 271.747 361.43 272.475C360.971 273.885 360.298 275.188 359.17 276.131C358.416 276.747 357.517 277.159 356.557 277.327C355.598 277.495 354.611 277.414 353.693 277.091L353.725 276.947C352.512 274.601 353.171 271.644 354.678 269.477C355.447 268.408 356.358 267.449 357.386 266.624C358.404 265.778 359.504 265.02 360.594 264.271C360.839 264.103 361.129 264.012 361.426 264.009C361.723 264.006 362.015 264.091 362.263 264.254C362.511 264.417 362.705 264.65 362.82 264.923C362.935 265.197 362.965 265.498 362.908 265.788Z" fill="#48AFA3"/>
<path d="M353.952 285.859C353.646 283.632 353.33 281.377 353.545 279.126C353.736 277.127 354.348 275.175 355.594 273.574C356.255 272.726 357.059 271.999 357.971 271.427C358.209 271.277 358.427 271.653 358.191 271.801C356.613 272.795 355.393 274.262 354.706 275.992C353.948 277.915 353.826 280.012 353.958 282.055C354.037 283.29 354.204 284.517 354.373 285.744C354.387 285.799 354.379 285.858 354.35 285.907C354.322 285.957 354.276 285.994 354.221 286.011C354.165 286.026 354.106 286.018 354.056 285.99C354.006 285.961 353.969 285.915 353.953 285.859L353.952 285.859Z" fill="#F2F2F2"/>
<path d="M435.831 137.377C436.224 137.377 436.543 137.059 436.543 136.667C436.543 136.276 436.224 135.958 435.831 135.958C435.438 135.958 435.12 136.276 435.12 136.667C435.12 137.059 435.438 137.377 435.831 137.377Z" fill="white"/>
<path d="M477.432 202.328H393.034C392.964 202.328 392.896 202.3 392.847 202.251C392.797 202.201 392.769 202.134 392.769 202.065L392.898 201.771L477.432 201.801C477.502 201.801 477.57 201.828 477.619 201.878C477.669 201.927 477.697 201.994 477.698 202.064C477.698 202.133 477.67 202.2 477.621 202.25C477.572 202.3 477.504 202.328 477.434 202.328L477.432 202.328Z" fill="#3F3D56"/>
<path d="M409.088 200.486H408.57V201.958H409.088V200.486Z" fill="#3F3D56"/>
<path d="M424.597 192.029H424.079V201.958H424.597V192.029Z" fill="#3F3D56"/>
<path d="M440.138 180.089H439.62V201.958H440.138V180.089Z" fill="#3F3D56"/>
<path d="M455.68 169.891H455.162V201.958H455.68V169.891Z" fill="#3F3D56"/>
<path d="M471.221 193.273H470.703V201.958H471.221V193.273Z" fill="#3F3D56"/>
<path d="M455.453 168.104C456.328 168.104 457.037 167.396 457.037 166.524C457.037 165.651 456.328 164.944 455.453 164.944C454.577 164.944 453.868 165.651 453.868 166.524C453.868 167.396 454.577 168.104 455.453 168.104Z" fill="#34B350"/>
<path d="M440.161 177.37C441.036 177.37 441.746 176.663 441.746 175.79C441.746 174.918 441.036 174.21 440.161 174.21C439.286 174.21 438.576 174.918 438.576 175.79C438.576 176.663 439.286 177.37 440.161 177.37Z" fill="#34B350"/>
<path d="M470.994 191.943C471.869 191.943 472.579 191.236 472.579 190.363C472.579 189.491 471.869 188.783 470.994 188.783C470.119 188.783 469.409 189.491 469.409 190.363C469.409 191.236 470.119 191.943 470.994 191.943Z" fill="#34B350"/>
<path d="M423.924 257.119V238.479C423.924 238.24 424.203 238.046 424.547 238.046H427.328C427.672 238.046 427.951 238.24 427.951 238.479V257.168L423.924 257.119Z" fill="#3F3D56"/>
<path d="M433.107 257.183V242.94C433.107 242.71 433.386 242.524 433.73 242.524H436.51C436.854 242.524 437.133 242.71 437.133 242.94V257.152L433.107 257.183Z" fill="#3F3D56"/>
<path d="M451.472 257.149V249.906C451.448 249.819 451.726 249.744 452.095 249.737H454.875C455.245 249.744 455.523 249.819 455.498 249.906V257.168L451.472 257.149Z" fill="#3F3D56"/>
<path d="M414.742 257.149V249.906C414.742 249.813 415.021 249.737 415.365 249.737H418.145C418.489 249.737 418.768 249.813 418.768 249.906V257.168L414.742 257.149Z" fill="#3F3D56"/>
<path d="M442.289 257.078V222.098C442.289 221.649 442.568 221.286 442.912 221.286H445.693C446.037 221.286 446.316 221.649 446.316 222.098V257.169L442.289 257.078Z" fill="#34B350"/>
<path d="M467.48 257.49H404.601C404.534 257.49 404.471 257.463 404.424 257.417C404.377 257.37 404.351 257.307 404.351 257.241C404.351 257.175 404.377 257.112 404.424 257.065C404.471 257.018 404.534 256.992 404.601 256.992H467.48C467.546 256.992 467.61 257.018 467.657 257.065C467.703 257.112 467.73 257.175 467.73 257.241C467.73 257.307 467.703 257.37 467.657 257.417C467.61 257.463 467.546 257.49 467.48 257.49Z" fill="#3F3D56"/>
<path d="M539.869 286.345H347.488C347.421 286.345 347.358 286.319 347.311 286.272C347.264 286.226 347.238 286.162 347.238 286.096C347.238 286.03 347.264 285.967 347.311 285.921C347.358 285.874 347.421 285.848 347.488 285.848H539.869C539.935 285.848 539.999 285.874 540.046 285.921C540.092 285.967 540.119 286.03 540.119 286.096C540.119 286.162 540.092 286.226 540.046 286.272C539.999 286.319 539.935 286.345 539.869 286.345Z" fill="#CACACA"/>
<path d="M408.9 198.851C409.775 198.851 410.484 198.143 410.484 197.271C410.484 196.398 409.775 195.691 408.9 195.691C408.024 195.691 407.315 196.398 407.315 197.271C407.315 198.143 408.024 198.851 408.9 198.851Z" fill="#34B350"/>
<path d="M424.37 190.145C425.245 190.145 425.955 189.437 425.955 188.565C425.955 187.692 425.245 186.985 424.37 186.985C423.495 186.985 422.785 187.692 422.785 188.565C422.785 189.437 423.495 190.145 424.37 190.145Z" fill="#34B350"/>
<path d="M514.269 190.732L526.764 177.237L516.538 169.226L511.486 180.315L488.567 187.832C487.795 187.391 486.91 187.183 486.02 187.233C485.131 187.282 484.275 187.588 483.557 188.112C482.839 188.637 482.291 189.357 481.979 190.185C481.666 191.014 481.603 191.915 481.798 192.778C481.992 193.641 482.435 194.43 483.073 195.048C483.711 195.665 484.516 196.085 485.39 196.256C486.264 196.428 487.17 196.343 487.996 196.012C488.822 195.681 489.534 195.118 490.044 194.393L514.269 190.732Z" fill="#FFB6B6"/>
<path d="M536.618 159.808C538.864 164.797 525.16 179.048 525.16 179.048C521.413 182.067 520.818 189.623 516.173 190.464C503.641 192.734 511.435 190.359 508.198 191.599C505.152 192.766 507.958 182.778 505.92 182.143C504.754 181.78 511.236 177.605 511.236 177.605C511.236 177.605 517.078 166.195 520.669 160.276C521.654 158.584 523.052 157.168 524.734 156.159C526.415 155.15 528.326 154.581 530.288 154.505C530.288 154.505 534.372 154.82 536.618 159.808Z" fill="#198D9D"/>
<path d="M544.638 304.034L539.372 304.033L536.867 283.115L544.639 283.116L544.638 304.034Z" fill="#FFB6B6"/>
<path d="M544.632 302.344L538.717 300.224L538.542 300.161L535.276 302.344C533.483 302.343 531.76 302.954 530.465 304.047C529.171 305.141 528.404 306.633 528.327 308.213C528.318 308.3 528.318 308.391 528.318 308.482V308.683H546.193V302.344H544.632Z" fill="#2F2E41"/>
<path d="M532.204 299.121L526.717 300.935L516.66 281.918L524.758 279.242L532.204 299.121Z" fill="#FFB6B6"/>
<path d="M531.506 296.793L525.215 296.497L525.029 296.487L522.799 299.821C521.131 300.401 519.754 301.595 518.955 303.154C518.156 304.714 517.997 306.518 518.511 308.191C518.535 308.284 518.569 308.379 518.602 308.473L518.677 308.683L535.313 302.897L532.96 296.287L531.506 296.793Z" fill="#2F2E41"/>
<path d="M546.587 213.066C551.555 212.872 545.401 252.7 545.401 252.7C545.401 252.7 547.201 287.667 546.82 289.502C546.438 291.337 546.772 296.287 546.772 296.287C545.798 294.504 535.756 295.849 535.756 295.849L534.39 260.41L527.415 232.015L517.746 251.049L527.014 280.264C527.014 280.264 530.767 283.758 530.368 285.139C529.969 286.52 520.138 289.633 518.331 289.704C516.525 289.774 517.34 287.467 517.253 285.196C517.165 282.924 508.664 261.869 505.674 254.705C502.684 247.541 505.008 237.44 506.535 230.1C508.061 222.76 516.091 208.985 516.091 208.985C526.059 197.675 541.619 213.26 546.587 213.066Z" fill="#2F2E41"/>
<path d="M532.593 147.533C537.529 147.533 541.53 143.371 541.53 138.236C541.53 133.101 537.529 128.939 532.593 128.939C527.656 128.939 523.655 133.101 523.655 138.236C523.655 143.371 527.656 147.533 532.593 147.533Z" fill="#FFB6B6"/>
<path d="M528.425 154.459C526.397 155.671 525.184 157.899 524.488 160.167C523.198 164.364 522.422 168.704 522.177 173.091L519.498 199.261L514.329 212.145C525.384 211.18 549.9 215.711 549.9 215.711C549.9 215.711 550.811 215.406 549.9 214.49C548.989 213.573 548.102 214.385 549.013 213.469C549.924 212.553 549.296 213.573 548.992 212.657C548.689 211.741 548.992 212.352 549.296 212.046C549.6 211.741 546.946 208.992 546.946 208.992L549.374 192.942L552.411 160.567C548.767 155.986 541.44 153.285 541.44 153.285L539.546 149.857L530.08 150.619L528.425 154.459Z" fill="#198D9D"/>
<path d="M556.296 190.153L553.847 176.199L545.323 177.692L546.072 189.897L542.341 215.304C541.472 215.608 540.713 216.149 540.157 216.863C539.601 217.576 539.272 218.43 539.209 219.321C539.147 220.212 539.354 221.102 539.806 221.881C540.257 222.66 540.934 223.295 541.753 223.709C542.571 224.123 543.497 224.298 544.417 224.212C545.337 224.127 546.211 223.784 546.933 223.227C547.655 222.669 548.193 221.921 548.482 221.073C548.772 220.225 548.8 219.314 548.562 218.45L556.296 190.153Z" fill="#FFB6B6"/>
<path d="M548.702 158.04C554.195 159.548 556.359 179.1 556.359 179.1C558.847 188.537 554.138 192.511 552.943 192.469C549.547 192.351 547.665 189.581 545.788 190.717C544.715 191.366 544.515 183.902 544.515 183.902C544.515 183.902 540.663 176.956 538.353 170.427C537.664 168.593 537.473 166.622 537.798 164.699C538.124 162.775 538.954 160.961 540.213 159.426C540.213 159.426 543.21 156.533 548.702 158.04Z" fill="#198D9D"/>
<path d="M543.856 135.342C543.824 133.778 543.644 131.778 542.528 130.182C541.587 128.84 539.688 127.777 537.918 128.308C537.938 127.961 537.859 127.615 537.69 127.309C537.522 127.002 537.27 126.748 536.963 126.574C536.285 126.233 535.536 126.048 534.774 126.032C532.978 125.868 531.118 125.697 529.3 126.036C527.259 126.415 525.589 127.447 524.722 128.869L524.702 128.913L524.525 129.755C524.501 129.868 524.453 129.974 524.384 130.067C524.314 130.16 524.225 130.237 524.122 130.293C524.019 130.35 523.905 130.383 523.787 130.391C523.67 130.4 523.552 130.382 523.442 130.34C523.322 130.296 523.191 130.283 523.065 130.304C522.938 130.324 522.818 130.376 522.718 130.455C522.619 130.535 522.541 130.638 522.495 130.756C522.448 130.873 522.433 131.001 522.452 131.125L522.5 131.461L521.988 131.366C521.859 131.342 521.726 131.351 521.603 131.394C521.479 131.437 521.369 131.511 521.285 131.61C521.2 131.708 521.144 131.827 521.122 131.954C521.1 132.081 521.113 132.211 521.159 132.331L521.301 132.714C521.195 132.716 521.091 132.738 520.994 132.78C520.897 132.822 520.809 132.882 520.737 132.958C520.633 133.069 520.568 133.208 520.551 133.357C520.533 133.506 520.565 133.657 520.64 133.788C521.215 134.75 522.029 135.554 523.007 136.124C523.446 136.384 523.92 136.583 524.415 136.715C524.519 136.744 524.625 136.769 524.735 136.791C528.693 137.629 532.774 137.749 536.776 137.146C536.541 137.921 536.45 138.732 536.509 139.539C536.544 139.997 536.705 140.436 536.976 140.81C537.247 141.184 537.618 141.478 538.047 141.66C538.229 141.72 538.417 141.765 538.608 141.793C538.79 141.822 538.97 141.865 539.146 141.922C539.405 142.016 539.635 142.174 539.812 142.383C539.988 142.591 540.106 142.842 540.152 143.109C540.199 143.376 540.173 143.651 540.076 143.905C539.98 144.159 539.817 144.384 539.604 144.556C539.604 144.556 540.449 145.243 540.555 145.208C540.97 145.028 541.317 144.725 541.548 144.341C543.157 142.068 543.934 139.042 543.856 135.342Z" fill="#2F2E41"/>
</svg>
